<svg width="28" height="24" viewBox="0 0 28 24" xmlns="http://www.w3.org/2000/svg">
<path d="M19.3906 3.89062L23.6094 8.10938C23.7031 8.20312 23.75 8.3125 23.75 8.4375C23.75 8.5625 23.7031 8.67188 23.6094 8.76562L13.3438 19.0312L9.03125 19.5C8.71875 19.5312 8.45312 19.4531 8.23438 19.2656C8.04688 19.0469 7.96875 18.7812 8 18.4688L8.46875 14.1562L18.7344 3.89062C18.8281 3.79688 18.9375 3.75 19.0625 3.75C19.1875 3.75 19.2969 3.79688 19.3906 3.89062ZM26.9844 2.8125L24.6875 0.515625C24.3125 0.171875 23.875 0 23.375 0C22.875 0 22.4531 0.171875 22.1094 0.515625L20.4219 2.20312C20.3281 2.29688 20.2812 2.40625 20.2812 2.53125C20.2812 2.65625 20.3281 2.76562 20.4219 2.85938L24.6406 7.07812C24.7344 7.17188 24.8438 7.21875 24.9688 7.21875C25.0938 7.21875 25.2031 7.17188 25.2969 7.07812L26.9844 5.39062C27.3281 5.04688 27.5 4.625 27.5 4.125C27.5 3.625 27.3281 3.1875 26.9844 2.8125ZM18.5 16.2188V21H3.5V6H14.2812C14.4375 6 14.5625 5.95312 14.6562 5.85938L16.5312 3.9375C16.7188 3.78125 16.7656 3.59375 16.6719 3.375C16.5781 3.125 16.4062 3 16.1562 3H2.75C2.125 3 1.59375 3.21875 1.15625 3.65625C0.71875 4.09375 0.5 4.625 0.5 5.25V21.75C0.5 22.375 0.71875 22.9062 1.15625 23.3438C1.59375 23.7812 2.125 24 2.75 24H19.25C19.875 24 20.4062 23.7812 20.8438 23.3438C21.2812 22.9062 21.5 22.375 21.5 21.75V14.3438C21.5 14.0938 21.375 13.9219 21.125 13.8281C20.9062 13.7344 20.7188 13.7812 20.5625 13.9688L18.6875 15.8438C18.5625 15.9375 18.5 16.0625 18.5 16.2188Z"/>
</svg>
