<svg width="89" height="36" viewBox="0 0 89 36" xmlns="http://www.w3.org/2000/svg">
<path fill-rule="evenodd" clip-rule="evenodd" d="M63.6698 0.533651H71.4974L89 35.4664H81.1724L79.422 31.9731H63.094C64.2204 29.8922 64.8609 27.5128 64.8609 24.9864H75.9216L67.5834 8.34504L60.3477 22.7864C60.5003 23.4965 60.5825 24.2319 60.5825 24.9864C60.5825 30.765 55.8714 35.4664 50.0808 35.4664H31.8566C34.2594 33.5694 36.2644 31.1932 37.7209 28.4799H50.0808C52.0113 28.4799 53.5816 26.9129 53.5816 24.9864C53.5816 23.0602 52.0113 21.4932 50.0808 21.4932H43.076C40.3788 21.4932 37.9163 20.4724 36.0547 18.7985C35.634 28.3544 27.7149 36 18.0374 36C8.09165 36 0 27.9254 0 18C0 8.0746 8.09165 0 18.0374 0C24.2744 0 29.7809 3.17575 33.0212 7.99141C34.3247 3.68186 38.3381 0.533651 43.076 0.533651H58.8865L55.3857 7.52008H43.076C41.1458 7.52008 39.5755 9.08709 39.5755 11.0136C39.5755 12.9398 41.1458 14.5068 43.076 14.5068H50.0808C52.1953 14.5068 54.1643 15.1356 55.814 16.2129L63.6698 0.533651ZM18.0543 29.0282C24.1537 29.0282 29.1157 24.081 29.1157 18C29.1157 11.919 24.1537 6.97183 18.0543 6.97183C11.9549 6.97183 6.99286 11.919 6.99286 18C6.99286 24.081 11.9549 29.0282 18.0543 29.0282Z"/>
</svg>
